<?xml version="1.0" encoding="UTF-8" standalone="no"?>
<!-- Created with Inkscape (http://www.inkscape.org/) -->

<svg
   version="1.1"
   id="svg2"
   width="1367.88"
   height="294.49332"
   viewBox="0 0 1367.88 294.49332"
   sodipodi:docname="EL_χρηματοδοτείται_από_την_Ευρωπαϊκή_RGB_NEG.eps"
   xmlns:inkscape="http://www.inkscape.org/namespaces/inkscape"
   xmlns:sodipodi="http://sodipodi.sourceforge.net/DTD/sodipodi-0.dtd"
   xmlns="http://www.w3.org/2000/svg"
   xmlns:svg="http://www.w3.org/2000/svg">
  <defs
     id="defs6" />
  <sodipodi:namedview
     id="namedview4"
     pagecolor="#ffffff"
     bordercolor="#000000"
     borderopacity="0.25"
     inkscape:showpageshadow="2"
     inkscape:pageopacity="0.0"
     inkscape:pagecheckerboard="0"
     inkscape:deskcolor="#d1d1d1" />
  <g
     id="g8"
     inkscape:groupmode="layer"
     inkscape:label="ink_ext_XXXXXX"
     transform="matrix(1.3333333,0,0,-1.3333333,0,294.49333)">
    <g
       id="g10"
       transform="scale(0.1)">
      <path
         d="M 102.336,101.059 H 3051.79 V 2103.9 H 102.336 V 101.059"
         style="fill:#ffffff;fill-opacity:1;fill-rule:nonzero;stroke:none"
         id="path12" />
      <path
         d="M 159.055,158.281 H 2995.08 V 2048.98 H 159.055 V 158.281"
         style="fill:#2a3c93;fill-opacity:1;fill-rule:nonzero;stroke:none"
         id="path14" />
      <path
         d="m 1516.64,1637.02 59.84,43.67 59.85,-43.67 -22.78,70.63 60.79,43.67 h -74.93 l -22.93,71.48 -22.93,-71.56 -74.88,0.08 60.74,-43.67 -22.77,-70.63"
         style="fill:#fbca07;fill-opacity:1;fill-rule:nonzero;stroke:none"
         id="path16" />
      <path
         d="m 1206.95,1553.82 59.84,43.67 59.81,-43.67 -22.74,70.63 60.75,43.68 h -74.93 l -22.92,71.55 -22.93,-71.64 -74.89,0.09 60.74,-43.68 -22.73,-70.63"
         style="fill:#fbca07;fill-opacity:1;fill-rule:nonzero;stroke:none"
         id="path18" />
      <path
         d="m 1040.19,1512.57 -22.93,-71.64 -74.881,0.08 60.741,-43.67 -22.772,-70.63 59.842,43.67 59.84,-43.67 -22.77,70.63 60.74,43.67 h -74.88 l -22.93,71.56"
         style="fill:#fbca07;fill-opacity:1;fill-rule:nonzero;stroke:none"
         id="path20" />
      <path
         d="m 957.066,1061.08 59.814,-43.67 -22.743,70.62 60.743,43.68 h -74.884 l -22.93,71.56 -22.929,-71.72 -74.918,0.16 60.777,-43.68 -22.769,-70.62 59.839,43.67"
         style="fill:#fbca07;fill-opacity:1;fill-rule:nonzero;stroke:none"
         id="path22" />
      <path
         d="m 1063.12,821.48 -22.93,71.559 -22.93,-71.641 -74.881,0.082 60.741,-43.671 -22.772,-70.629 59.842,43.75 59.84,-43.75 -22.77,70.629 60.74,43.671 h -74.88"
         style="fill:#fbca07;fill-opacity:1;fill-rule:nonzero;stroke:none"
         id="path24" />
      <path
         d="m 1290.15,594.449 -22.93,71.481 -22.89,-71.559 -74.92,0.078 60.74,-43.668 -22.73,-70.633 59.84,43.672 59.8,-43.672 -22.73,70.633 60.74,43.668 h -74.92"
         style="fill:#fbca07;fill-opacity:1;fill-rule:nonzero;stroke:none"
         id="path26" />
      <path
         d="m 1599.45,512.18 -22.93,71.558 -22.89,-71.636 -74.92,0.078 60.74,-43.668 -22.73,-70.633 59.84,43.672 59.8,-43.672 -22.77,70.633 60.78,43.668 h -74.92"
         style="fill:#fbca07;fill-opacity:1;fill-rule:nonzero;stroke:none"
         id="path28" />
      <path
         d="m 1908.75,594.449 -22.89,71.481 -22.97,-71.559 -74.84,0.078 60.7,-43.668 -22.73,-70.633 59.84,43.672 59.84,-43.672 -22.81,70.633 60.78,43.668 h -74.92"
         style="fill:#fbca07;fill-opacity:1;fill-rule:nonzero;stroke:none"
         id="path30" />
      <path
         d="m 2135.86,821.48 -22.97,71.559 -22.97,-71.641 -74.84,0.082 60.78,-43.671 -22.81,-70.629 59.84,43.75 59.84,-43.75 -22.81,70.629 60.78,43.671 h -74.84"
         style="fill:#fbca07;fill-opacity:1;fill-rule:nonzero;stroke:none"
         id="path32" />
      <path
         d="m 2292.97,1132.57 h -74.92 l -22.97,71.56 -22.89,-71.64 -74.92,0.08 60.78,-43.67 -22.74,-70.63 59.77,43.75 59.84,-43.75 -22.73,70.63 60.78,43.67"
         style="fill:#fbca07;fill-opacity:1;fill-rule:nonzero;stroke:none"
         id="path34" />
      <path
         d="m 2053.04,1327.65 59.84,43.67 59.85,-43.67 -22.81,70.63 60.78,43.6 h -74.85 l -22.97,71.55 -22.96,-71.64 -74.85,0.09 60.78,-43.6 -22.81,-70.63"
         style="fill:#fbca07;fill-opacity:1;fill-rule:nonzero;stroke:none"
         id="path36" />
      <path
         d="m 1886.72,1739.6 -22.89,-71.64 -74.92,0.17 60.7,-43.75 -22.73,-70.64 59.92,43.75 59.76,-43.75 -22.73,70.64 60.78,43.75 h -75 l -22.89,71.47"
         style="fill:#fbca07;fill-opacity:1;fill-rule:nonzero;stroke:none"
         id="path38" />
      <g
         id="g40"
         transform="scale(10)">
        <g
           aria-label="NextGenerationEU"
           transform="matrix(1,0,0,-1,330.686,15.8941)"
           id="text44"
           style="font-size:51px;font-family:Arial;-inkscape-font-specification:ArialMT;fill:#ffffff">
          <path
             d="M 3.8847656,0 V -36.506836 H 8.840332 L 28.015137,-7.8442383 V -36.506836 h 4.631836 V 0 H 27.691406 L 8.5166016,-28.6875 V 0 Z"
             id="path52" />
          <path
             d="m 58.296928,-8.5166016 4.631836,0.5727539 q -1.095703,4.0590821 -4.059082,6.300293 -2.963379,2.24121095 -7.570312,2.24121095 -5.802246,0 -9.213867,-3.56103515 -3.386719,-3.5859375 -3.386719,-10.0356441 0,-6.673829 3.436523,-10.359375 3.436524,-3.685547 8.915039,-3.685547 5.3042,0 8.666016,3.61084 3.361816,3.610839 3.361816,10.160156 0,0.398437 -0.0249,1.195312 H 43.33062 q 0.249023,4.3579104 2.465332,6.6738284 2.216308,2.315918 5.52832,2.315918 2.465332,0 4.208496,-1.2949219 1.743164,-1.2949219 2.76416,-4.1337891 z M 43.579643,-15.763184 h 14.76709 q -0.298828,-3.336914 -1.693359,-5.005371 -2.141602,-2.589843 -5.553223,-2.589843 -3.087891,0 -5.20459,2.066894 -2.091797,2.066895 -2.315918,5.52832 z"
             id="path54" />
          <path
             d="m 65.56794,0 9.662109,-13.746094 -8.939941,-12.700195 h 5.603027 l 4.059082,6.200684 q 1.145508,1.768066 1.842774,2.963378 1.095703,-1.643554 2.017089,-2.913574 l 4.45752,-6.250488 h 5.354004 L 80.484444,-13.995117 90.320869,0 H 84.817451 L 79.388741,-8.2177734 77.944405,-10.434082 70.996651,0 Z"
             id="path56" />
          <path
             d="m 103.84284,-4.0092773 0.64746,3.95947261 q -1.89258,0.3984375 -3.38672,0.3984375 -2.440425,0 -3.785152,-0.77197265 Q 95.973701,-1.1953125 95.42585,-2.4404297 94.877998,-3.7104492 94.877998,-7.7446289 V -22.959961 h -3.287109 v -3.486328 h 3.287109 v -6.549316 l 4.45752,-2.689454 v 9.23877 h 4.507322 v 3.486328 h -4.507322 v 15.4643555 q 0,1.9174805 0.224121,2.4653321 0.249023,0.5478515 0.771971,0.871582 0.54785,0.3237305 1.54395,0.3237305 0.74707,0 1.96728,-0.1743164 z"
             id="path58" />
          <path
             d="m 125.88188,-14.318848 v -4.283203 l 15.46436,-0.0249 v 13.5468749 q -3.56104,2.8388672 -7.34619,4.2832031 -3.78516,1.41943359 -7.76954,1.41943359 -5.3789,0 -9.78662,-2.29101559 -4.38281,-2.315918 -6.62402,-6.6738282 -2.24121,-4.3579098 -2.24121,-9.7368168 0,-5.329101 2.21631,-9.936035 2.24121,-4.631836 6.4248,-6.873047 4.1836,-2.241211 9.63721,-2.241211 3.95947,0 7.14697,1.294922 3.2124,1.27002 5.03028,3.561036 1.81787,2.291015 2.76416,5.976562 l -4.35791,1.195313 q -0.82178,-2.789063 -2.042,-4.382813 -1.22021,-1.59375 -3.48632,-2.540039 -2.26612,-0.971191 -5.03028,-0.971191 -3.31201,0 -5.72754,1.020996 -2.41552,0.996093 -3.90967,2.639648 -1.46923,1.643555 -2.29101,3.61084 -1.39453,3.386719 -1.39453,7.346191 0,4.88086 1.66845,8.167969 1.69336,3.2871094 4.90577,4.8808594 3.2124,1.59375 6.82324,1.59375 3.13769,0 6.12598,-1.1953125 2.98828,-1.2202148 4.53222,-2.5898437 v -6.7983402 z"
             id="path60" />
          <path
             d="m 165.99904,-8.5166016 4.63183,0.5727539 q -1.0957,4.0590821 -4.05908,6.300293 -2.96338,2.24121095 -7.57031,2.24121095 -5.80225,0 -9.21387,-3.56103515 -3.38672,-3.5859375 -3.38672,-10.0356441 0,-6.673829 3.43653,-10.359375 3.43652,-3.685547 8.91504,-3.685547 5.3042,0 8.66601,3.61084 3.36182,3.610839 3.36182,10.160156 0,0.398437 -0.0249,1.195312 h -19.72266 q 0.24902,4.3579104 2.46533,6.6738284 2.21631,2.315918 5.52832,2.315918 2.46533,0 4.2085,-1.2949219 1.74316,-1.2949219 2.76416,-4.1337891 z m -14.71729,-7.2465824 h 14.76709 q -0.29882,-3.336914 -1.69336,-5.005371 -2.1416,-2.589843 -5.55322,-2.589843 -3.08789,0 -5.20459,2.066894 -2.0918,2.066895 -2.31592,5.52832 z"
             id="path62" />
          <path
             d="m 176.25934,0 v -26.446289 h 4.03418 v 3.760254 q 2.91357,-4.35791 8.41699,-4.35791 2.39063,0 4.38281,0.871582 2.01709,0.846679 3.01319,2.241211 0.99609,1.394531 1.39453,3.312011 0.24902,1.245118 0.24902,4.357911 V 0 h -4.48242 v -16.086914 q 0,-2.739258 -0.52295,-4.083984 -0.52295,-1.369629 -1.86768,-2.166504 -1.31982,-0.821778 -3.11279,-0.821778 -2.86377,0 -4.95557,1.817871 -2.06689,1.817872 -2.06689,6.89795 V 0 Z"
             id="path64" />
          <path
             d="m 222.72661,-8.5166016 4.63183,0.5727539 q -1.0957,4.0590821 -4.05908,6.300293 -2.96338,2.24121095 -7.57031,2.24121095 -5.80225,0 -9.21387,-3.56103515 -3.38672,-3.5859375 -3.38672,-10.0356441 0,-6.673829 3.43653,-10.359375 3.43652,-3.685547 8.91504,-3.685547 5.3042,0 8.66601,3.61084 3.36182,3.610839 3.36182,10.160156 0,0.398437 -0.0249,1.195312 H 207.7603 q 0.24902,4.3579104 2.46533,6.6738284 2.21631,2.315918 5.52832,2.315918 2.46533,0 4.2085,-1.2949219 1.74316,-1.2949219 2.76416,-4.1337891 z m -14.71729,-7.2465824 h 14.76709 q -0.29883,-3.336914 -1.69336,-5.005371 -2.1416,-2.589843 -5.55322,-2.589843 -3.08789,0 -5.20459,2.066894 -2.0918,2.066895 -2.31592,5.52832 z"
             id="path66" />
          <path
             d="m 232.93613,0 v -26.446289 h 4.03418 v 4.009277 q 1.54394,-2.813965 2.83886,-3.710449 1.31983,-0.896484 2.88868,-0.896484 2.26611,0 4.60693,1.444336 l -1.54395,4.158691 q -1.64355,-0.971191 -3.28711,-0.971191 -1.46923,0 -2.63964,0.896484 -1.17041,0.871582 -1.66846,2.44043 -0.74707,2.390625 -0.74707,5.229492 V 0 Z"
             id="path68" />
          <path
             d="m 267.22763,-3.262207 q -2.49023,2.1166992 -4.80615,2.98828122 -2.29102,0.87158203 -4.93067,0.87158203 -4.35791,0 -6.69873,-2.11669925 -2.34082,-2.1416015 -2.34082,-5.4536132 0,-1.9423829 0.87159,-3.5361328 0.89648,-1.618652 2.31591,-2.589844 1.44434,-0.971191 3.23731,-1.469238 1.31982,-0.348633 3.98437,-0.672363 5.42871,-0.647461 7.99366,-1.543946 0.0249,-0.921386 0.0249,-1.17041 0,-2.739258 -1.27002,-3.859863 -1.71826,-1.519043 -5.10498,-1.519043 -3.1626,0 -4.68164,1.120605 -1.49414,1.095704 -2.21631,3.909668 l -4.38281,-0.597656 q 0.59765,-2.813965 1.96728,-4.532226 1.36963,-1.743165 3.95947,-2.664551 2.58985,-0.946289 6.00147,-0.946289 3.38672,0 5.50342,0.796875 2.1167,0.796875 3.11279,2.01709 0.99609,1.195312 1.39453,3.038085 0.22412,1.145508 0.22412,4.13379 v 5.976562 q 0,6.2504883 0.27393,7.9189453 Q 271.95908,-1.519043 272.80576,0 h -4.68165 q -0.69726,-1.3945312 -0.89648,-3.262207 z m -0.37353,-10.010742 q -2.44043,0.996094 -7.32129,1.693359 -2.76416,0.398438 -3.90967,0.896485 -1.14551,0.498046 -1.76807,1.4692378 -0.62256,0.9462891 -0.62256,2.1166992 0,1.7929688 1.34473,2.9882813 1.36963,1.1953125 3.98437,1.1953125 2.58985,0 4.60694,-1.1206055 2.01709,-1.1455078 2.96338,-3.112793 0.72217,-1.5190429 0.72217,-4.4824223 z"
             id="path70" />
          <path
             d="m 288.12021,-4.0092773 0.64746,3.95947261 q -1.89258,0.3984375 -3.38672,0.3984375 -2.44043,0 -3.78516,-0.77197265 -1.34472,-0.77197266 -1.89257,-2.01708986 -0.54786,-1.2700195 -0.54786,-5.3041992 V -22.959961 h -3.2871 v -3.486328 h 3.2871 v -6.549316 l 4.45752,-2.689454 v 9.23877 h 4.50733 v 3.486328 h -4.50733 v 15.4643555 q 0,1.9174805 0.22413,2.4653321 0.24902,0.5478515 0.77197,0.871582 0.54785,0.3237305 1.54394,0.3237305 0.74707,0 1.96729,-0.1743164 z"
             id="path72" />
          <path
             d="m 292.52841,-31.352051 v -5.154785 h 4.48242 v 5.154785 z m 0,31.352051 v -26.446289 h 4.48242 V 0 Z"
             id="path74" />
          <path
             d="m 302.16513,-13.223145 q 0,-7.346191 4.08398,-10.882324 3.41163,-2.938476 8.31739,-2.938476 5.45361,0 8.91504,3.585937 3.46142,3.561035 3.46142,9.861328 0,5.1049808 -1.54394,8.0434573 -1.51905,2.9135743 -4.45752,4.5322266 -2.91358,1.61865235 -6.375,1.61865235 -5.55322,0 -8.98975,-3.56103515 -3.41162,-3.5610352 -3.41162,-10.2597661 z m 4.60693,0 q 0,5.0800786 2.21631,7.6201177 2.21631,2.5151367 5.57813,2.5151367 3.33691,0 5.55322,-2.5400391 2.21631,-2.5400391 2.21631,-7.7446293 0,-4.905761 -2.24121,-7.420898 -2.21631,-2.540039 -5.52832,-2.540039 -3.36182,0 -5.57813,2.515137 -2.21631,2.515136 -2.21631,7.595214 z"
             id="path76" />
          <path
             d="m 332.1969,0 v -26.446289 h 4.03418 v 3.760254 q 2.91357,-4.35791 8.41699,-4.35791 2.39063,0 4.38281,0.871582 2.01709,0.846679 3.01319,2.241211 0.99609,1.394531 1.39453,3.312011 0.24902,1.245118 0.24902,4.357911 V 0 h -4.48242 v -16.086914 q 0,-2.739258 -0.52295,-4.083984 -0.52295,-1.369629 -1.86767,-2.166504 -1.31983,-0.821778 -3.1128,-0.821778 -2.86377,0 -4.95556,1.817871 -2.0669,1.817872 -2.0669,6.89795 V 0 Z"
             id="path78" />
          <path
             d="m 361.23358,0 v -36.506836 h 26.39649 v 4.308106 h -21.56543 v 11.181152 h 20.1958 v 4.283203 h -20.1958 v 12.4262695 h 22.41211 V 0 Z"
             id="path80" />
          <path
             d="m 419.10703,-36.506836 h 4.83105 v 21.092285 q 0,5.5034182 -1.24512,8.7407229 -1.24511,3.2373047 -4.50732,5.2792969 -3.23731,2.01708979 -8.5166,2.01708979 -5.12989,0 -8.39209,-1.76806639 -3.26221,-1.7680664 -4.65674,-5.1049805 -1.39453,-3.3618164 -1.39453,-9.1640627 v -21.092285 h 4.83105 v 21.067383 q 0,4.756348 0.87158,7.0224608 0.89649,2.241211 3.03809,3.4614258 2.1665,1.2202148 5.2793,1.2202148 5.3291,0 7.59521,-2.4155273 2.26612,-2.4155274 2.26612,-9.2885741 z"
             id="path82" />
        </g>
        <g
           aria-label="Χρηματοδοτείται από 
την Ευρωπαϊκή Ένωση"
           transform="matrix(1,0,0,-1,334.29108,162.9691)"
           id="text50"
           style="font-weight:bold;font-size:59px;font-family:Arial;-inkscape-font-specification:Arial-BoldMT;fill:#ffffff">
          <path
             d="M 0,0 14.433105,-22.038574 1.3540039,-42.233398 h 9.9677731 l 8.469727,13.568847 8.296875,-13.568847 h 9.881348 L 24.833008,-21.72168 39.266113,0 H 28.981445 L 19.618652,-14.605957 10.227051,0 Z"
             id="path85" />
          <path
             d="M 50.84763,-1.8725586 V 11.638672 h -8.095215 v -24.083985 q 0,-6.510742 1.325195,-10.313476 1.354004,-3.831543 4.868652,-6.165039 3.514649,-2.362305 8.498536,-2.362305 7.403808,0 11.782714,4.782227 4.378907,4.782226 4.378907,11.494629 0,6.568359 -4.234864,11.1489254 -4.206054,4.55175785 -10.342285,4.55175785 -4.062012,0 -8.18164,-2.56396485 z m 0,-12.5029294 q 0,3.802734 1.930175,6.1362302 1.930176,2.3334961 5.243164,2.3334961 3.255371,0 5.271973,-2.5927735 2.016602,-2.6215818 2.016602,-6.8564448 0,-4.32129 -1.872559,-6.827637 -1.84375,-2.506348 -5.32959,-2.506348 -3.024902,0 -5.156738,2.275879 -2.103027,2.24707 -2.103027,8.037598 z"
             id="path87" />
          <path
             d="m 107.85154,11.638672 h -8.095215 v -27.25293 q 0,-4.09082 -0.345703,-5.73291 -0.316895,-1.670898 -1.555664,-2.708008 -1.209961,-1.037109 -3.111329,-1.037109 -2.275878,0 -3.975585,1.296387 -1.699708,1.296386 -2.218262,3.341796 -0.489746,2.016602 -0.489746,6.597168 V 0 h -8.095215 v -30.594727 h 7.519043 v 4.494141 q 4.004394,-5.185547 10.111816,-5.185547 3.54346,0 5.99219,1.526856 2.44873,1.526855 3.34179,3.88916 0.92188,2.362305 0.92188,6.856445 z"
             id="path89" />
          <path
             d="m 116.07143,-30.594727 h 8.09522 v 13.914551 q 0,3.88916 0.40332,6.078613 0.40332,2.1894536 1.81494,3.5434575 1.44043,1.3540039 3.42822,1.3540039 2.07422,0 3.57227,-1.4116211 1.52685,-1.4116211 1.95898,-3.4282223 0.43213,-2.016602 0.43213,-6.049805 v -14.000977 h 8.09522 V 0 h -7.46143 v -3.6875 q -2.27588,4.37890625 -6.16504,4.37890625 -4.14844,0 -6.07861,-4.37890625 v 15.326172 h -8.09522 z"
             id="path91" />
          <path
             d="m 175.42798,-30.594727 h 6.94287 q -1.64209,3.341797 -2.76563,8.556153 -1.09472,5.185547 -1.09472,7.259765 0,2.6792 1.0083,7.0004887 1.0083,4.321289 2.53516,7.7783203 h -6.79883 q -0.14405,-0.57617187 -0.51856,-1.6132812 -0.60498,-1.7285157 -1.03711,-3.4570313 -3.54345,5.76171875 -10.11181,5.76171875 -6.19385,0 -9.76612,-5.01269535 -3.54345,-5.0415039 -3.54345,-11.7539059 0,-6.337891 3.54345,-10.774414 3.54346,-4.436524 9.85254,-4.436524 6.22266,0 10.0542,5.963379 0.51856,-2.103027 1.69971,-5.271973 z m -16.85303,15.383789 q 0,4.234864 1.78613,6.8852544 1.81495,2.621582 4.6958,2.621582 2.76563,0 4.52295,-2.3334961 1.75733,-2.3334963 1.75733,-7.1733403 0,-4.753417 -1.87256,-7.202148 -1.87256,-2.44873 -4.52295,-2.44873 -2.76562,0 -4.58057,2.535156 -1.78613,2.535156 -1.78613,7.115722 z"
             id="path93" />
          <path
             d="m 185.69881,-30.594727 h 23.53662 v 6.712403 h -7.49024 V 0 h -8.09521 v -23.882324 h -7.95117 z"
             id="path95" />
          <path
             d="m 211.311,-15.729492 q 0,-4.033203 1.9878,-7.807129 1.98779,-3.773926 5.61767,-5.761719 3.65869,-1.987793 8.15284,-1.987793 6.94287,0 11.37939,4.522949 4.43652,4.494141 4.43652,11.379395 0,6.942871 -4.49414,11.5234374 -4.46533,4.55175785 -11.26416,4.55175785 -4.20605,0 -8.0376,-1.90136715 -3.80273,-1.9013672 -5.79052,-5.5600586 -1.9878,-3.6875005 -1.9878,-8.9594725 z m 8.29688,0.432129 q 0,4.551758 2.16064,6.9716794 2.16065,2.4199219 5.32959,2.4199219 3.16895,0 5.30079,-2.4199219 2.16064,-2.4199214 2.16064,-7.0292964 0,-4.494141 -2.16064,-6.914063 -2.13184,-2.419922 -5.30079,-2.419922 -3.16894,0 -5.32959,2.419922 -2.16064,2.419922 -2.16064,6.97168 z"
             id="path97" />
          <path
             d="m 250.09682,-42.233398 h 25.84131 v 6.712402 h -14.43311 q 2.44873,2.275879 8.26807,6.165039 3.71631,2.506348 5.30078,4.29248 1.58447,1.757325 2.53515,4.436524 0.95069,2.650391 0.95069,5.560058 0,6.4819341 -3.97559,11.1201177 -3.97558,4.63818355 -11.60986,4.63818355 -5.21436,0 -8.32569,-1.93017575 -3.11132,-1.9301758 -5.27197,-5.6464844 -2.13183,-3.7451171 -2.13183,-8.4985351 0,-5.53125 3.16894,-9.708496 3.16895,-4.206055 8.18164,-5.041504 -3.22656,-2.275879 -4.3501,-3.168945 l -4.14843,-3.226563 z m 4.95508,27.771484 q 0,4.321289 2.24707,6.6547851 2.27587,2.3046875 5.53125,2.3046875 3.25537,0 5.58886,-2.4199219 2.3335,-2.4487307 2.3335,-6.8276367 0,-4.407715 -2.27588,-6.827637 -2.27588,-2.419922 -5.44482,-2.419922 -3.6875,0 -5.84815,2.6792 -2.13183,2.65039 -2.13183,6.856445 z"
             id="path99" />
          <path
             d="m 283.11401,-15.729492 q 0,-4.033203 1.9878,-7.807129 1.98779,-3.773926 5.61767,-5.761719 3.65869,-1.987793 8.15283,-1.987793 6.94288,0 11.3794,4.522949 4.43652,4.494141 4.43652,11.379395 0,6.942871 -4.49414,11.5234374 -4.46533,4.55175785 -11.26416,4.55175785 -4.20605,0 -8.0376,-1.90136715 -3.80273,-1.9013672 -5.79052,-5.5600586 -1.9878,-3.6875005 -1.9878,-8.9594725 z m 8.29688,0.432129 q 0,4.551758 2.16064,6.9716794 2.16065,2.4199219 5.32959,2.4199219 3.16895,0 5.30078,-2.4199219 2.16065,-2.4199214 2.16065,-7.0292964 0,-4.494141 -2.16065,-6.914063 -2.13183,-2.419922 -5.30078,-2.419922 -3.16894,0 -5.32959,2.419922 -2.16064,2.419922 -2.16064,6.97168 z"
             id="path101" />
          <path
             d="m 316.54871,-30.594727 h 23.53662 v 6.712403 h -7.49024 V 0 h -8.09521 v -23.882324 h -7.95117 z"
             id="path103" />
          <path
             d="m 360.49356,-18.898437 v 6.280273 q -4.92627,0 -6.7124,0.806641 -1.75733,0.80664 -1.75733,2.7944332 0,1.4692382 1.23877,2.3911132 1.23877,0.921875 2.93848,0.921875 3.05371,0 7.25977,-2.8520507 l 5.32959,5.2719726 q -6.65479,3.97558595 -13.02149,3.97558595 -5.15674,0 -8.61377,-2.53515625 -3.42822,-2.5351562 -3.42822,-6.5107422 0,-5.1855468 5.41601,-7.4902348 -4.26367,-2.333496 -4.26367,-6.683593 0,-3.601075 2.73682,-6.165039 2.76562,-2.592774 8.75781,-2.592774 6.7124,0 11.14893,3.08252 l -4.78223,5.156738 q -2.96728,-1.64209 -5.79053,-1.64209 -2.0166,0 -3.05371,0.777832 -1.0083,0.777832 -1.0083,1.872559 0,3.140137 7.60547,3.140137 z"
             id="path105" />
          <path
             d="m 373.73975,0 v -30.594727 h 8.09521 V 0 Z m -0.40332,-34.339844 3.97558,-8.613769 h 9.07471 l -7.92236,8.613769 z"
             id="path107" />
          <path
             d="m 387.2897,-30.594727 h 23.53662 v 6.712403 h -7.49023 V 0 h -8.09521 v -23.882324 h -7.95118 z"
             id="path109" />
          <path
             d="m 437.97693,-30.594727 h 6.94287 q -1.64209,3.341797 -2.76563,8.556153 -1.09472,5.185547 -1.09472,7.259765 0,2.6792 1.0083,7.0004887 1.0083,4.321289 2.53516,7.7783203 h -6.79883 q -0.14405,-0.57617187 -0.51856,-1.6132812 -0.60498,-1.7285157 -1.03711,-3.4570313 -3.54345,5.76171875 -10.11181,5.76171875 -6.19385,0 -9.76612,-5.01269535 -3.54345,-5.0415039 -3.54345,-11.7539059 0,-6.337891 3.54345,-10.774414 3.54346,-4.436524 9.85254,-4.436524 6.22266,0 10.0542,5.963379 0.51856,-2.103027 1.69971,-5.271973 z m -16.85303,15.383789 q 0,4.234864 1.78613,6.8852544 1.81495,2.621582 4.6958,2.621582 2.76563,0 4.52295,-2.3334961 1.75733,-2.3334963 1.75733,-7.1733403 0,-4.753417 -1.87256,-7.202148 -1.87256,-2.44873 -4.52295,-2.44873 -2.76562,0 -4.58057,2.535156 -1.78613,2.535156 -1.78613,7.115722 z"
             id="path111" />
          <path
             d="m 451.08582,0 v -30.594727 h 8.09521 V 0 Z"
             id="path113" />
          <path
             d="m 507.03314,-30.594727 h 6.94287 q -1.64209,3.341797 -2.76562,8.556153 -1.09473,5.185547 -1.09473,7.259765 0,2.6792 1.0083,7.0004887 1.0083,4.321289 2.53516,7.7783203 h -6.79883 q -0.14404,-0.57617187 -0.51855,-1.6132812 -0.60498,-1.7285157 -1.03711,-3.4570313 -3.54346,5.76171875 -10.11182,5.76171875 -6.19385,0 -9.76611,-5.01269535 -3.54346,-5.0415039 -3.54346,-11.7539059 0,-6.337891 3.54346,-10.774414 3.54345,-4.436524 9.85254,-4.436524 6.22265,0 10.0542,5.963379 0.51855,-2.103027 1.6997,-5.271973 z m -16.85303,15.383789 q 0,4.234864 1.78614,6.8852544 1.81494,2.621582 4.6958,2.621582 2.76562,0 4.52295,-2.3334961 1.75732,-2.3334963 1.75732,-7.1733403 0,-4.753417 -1.87256,-7.202148 -1.87256,-2.44873 -4.52295,-2.44873 -2.76562,0 -4.58056,2.535156 -1.78614,2.535156 -1.78614,7.115722 z"
             id="path115" />
          <path
             d="m 517.28845,-30.594727 h 42.37744 v 6.712403 h -8.12402 V 0 h -8.09521 v -23.882324 h -9.93897 V 0 h -8.09521 v -23.882324 h -8.12403 z"
             id="path117" />
          <path
             d="m 563.43976,-15.729492 q 0,-4.033203 1.98779,-7.807129 1.98779,-3.773926 5.61768,-5.761719 3.65869,-1.987793 8.15283,-1.987793 6.94287,0 11.37939,4.522949 4.43653,4.494141 4.43653,11.379395 0,6.942871 -4.49414,11.5234374 -4.46534,4.55175785 -11.26416,4.55175785 -4.20606,0 -8.0376,-1.90136715 -3.80274,-1.9013672 -5.79053,-5.5600586 -1.98779,-3.6875005 -1.98779,-8.9594725 z m 8.29687,0.432129 q 0,4.551758 2.16065,6.9716794 2.16064,2.4199219 5.32959,2.4199219 3.16894,0 5.30078,-2.4199219 2.16064,-2.4199214 2.16064,-7.0292964 0,-4.494141 -2.16064,-6.914063 -2.13184,-2.419922 -5.30078,-2.419922 -3.16895,0 -5.32959,2.419922 -2.16065,2.419922 -2.16065,6.97168 z m 2.93848,-19.042481 3.97559,-8.613769 h 9.0747 l -7.92236,8.613769 z"
             id="path119" />
          <path
             d="M 1.3828125,40.204872 H 24.919434 v 6.712402 H 17.429199 V 70.799599 H 9.3339844 V 46.917274 H 1.3828125 Z"
             id="path121" />
          <path
             d="m 58.291538,82.438271 h -8.095215 v -27.25293 q 0,-4.09082 -0.345703,-5.73291 -0.316894,-1.670899 -1.555664,-2.708008 -1.209961,-1.037109 -3.111328,-1.037109 -2.275879,0 -3.975586,1.296386 -1.699707,1.296387 -2.218262,3.341797 -0.489746,2.016602 -0.489746,6.597168 V 70.799599 H 30.404819 V 40.204872 h 7.519043 v 4.494141 q 4.004395,-5.185547 10.111817,-5.185547 3.543457,0 5.992187,1.526855 2.448731,1.526856 3.341797,3.889161 0.921875,2.362304 0.921875,6.856445 z"
             id="path123" />
          <path
             d="M 75.009972,70.799599 62.679893,40.204872 h 8.498536 l 5.761718,15.614258 1.670899,5.214355 q 0.662597,-1.987793 0.835449,-2.621582 0.40332,-1.296386 0.864258,-2.592773 l 5.819336,-15.614258 h 8.325683 L 82.298546,70.799599 Z"
             id="path125" />
          <path
             d="M 115.86148,70.799599 V 28.5662 h 31.31494 v 7.144532 h -22.7876 v 9.362792 h 21.20313 v 7.115723 h -21.20313 v 11.494629 h 23.59424 v 7.115723 z"
             id="path127" />
          <path
             d="m 154.32141,40.204872 h 8.09522 v 15.671875 q 0,5.617676 1.58447,7.317383 1.58447,1.699707 4.09082,1.699707 2.90967,0 4.29248,-1.958984 1.38281,-1.987793 1.38281,-7.058106 V 40.204872 h 8.09522 V 54.58036 q 0,6.165039 -1.35401,9.593262 -1.354,3.399414 -4.60937,5.358399 -3.25537,1.958984 -7.6919,1.958984 -4.78222,0 -8.0664,-2.04541 -3.25537,-2.04541 -4.55176,-5.444824 -1.26758,-3.399414 -1.26758,-9.420411 z"
             id="path129" />
          <path
             d="m 196.75462,68.92704 v 13.511231 h -8.09521 V 58.354286 q 0,-6.510742 1.32519,-10.313476 1.35401,-3.831543 4.86866,-6.165039 3.51464,-2.362305 8.49853,-2.362305 7.40381,0 11.78272,4.782226 4.3789,4.782227 4.3789,11.494629 0,6.56836 -4.23486,11.148926 -4.20606,4.551758 -10.34229,4.551758 -4.06201,0 -8.18164,-2.563965 z m 0,-12.50293 q 0,3.802735 1.93018,6.136231 1.93017,2.333496 5.24316,2.333496 3.25537,0 5.27198,-2.592773 2.0166,-2.621582 2.0166,-6.856446 0,-4.321289 -1.87256,-6.827636 -1.84375,-2.506348 -5.32959,-2.506348 -3.0249,0 -5.15674,2.275879 -2.10303,2.24707 -2.10303,8.037597 z"
             id="path131" />
          <path
             d="m 228.37817,40.204872 h 7.72071 q -3.77393,7.864746 -3.77393,16.132813 0,4.724609 1.6709,6.741211 1.69971,2.016601 4.00439,2.016601 1.58448,0 2.76563,-0.979492 1.20996,-0.979492 1.55566,-2.419922 0.34571,-1.44043 0.34571,-4.407715 v -9.276367 h 8.09521 v 9.276367 q 0,2.852051 0.3169,4.350098 0.3457,1.498047 1.55566,2.477539 1.23877,0.979492 2.79443,0.979492 2.41993,0 4.03321,-2.103027 1.64209,-2.103028 1.64209,-6.97168 0,-3.28418 -0.9795,-7.691894 -0.97949,-4.407715 -2.79443,-8.124024 h 7.7207 q 1.61328,2.679199 2.96729,7.346192 1.38281,4.638183 1.38281,8.527343 0,6.741211 -3.57226,11.091309 -3.57227,4.321289 -9.39161,4.321289 -6.97168,0 -9.70849,-6.424316 -2.76563,6.424316 -9.73731,6.424316 -5.84814,0 -9.42041,-4.350098 -3.54345,-4.350097 -3.54345,-11.0625 0,-3.88916 1.354,-8.527343 1.38281,-4.666993 2.99609,-7.346192 z"
             id="path133" />
          <path
             d="m 271.34769,40.204872 h 42.37744 v 6.712402 h -8.12403 v 23.882325 h -8.09521 V 46.917274 h -9.93896 v 23.882325 h -8.09522 V 46.917274 h -8.12402 z"
             id="path135" />
          <path
             d="m 340.89163,40.204872 h 6.94287 q -1.64209,3.341797 -2.76562,8.556152 -1.09473,5.185547 -1.09473,7.259766 0,2.679199 1.0083,7.000488 1.0083,4.321289 2.53516,7.778321 h -6.79883 q -0.14404,-0.576172 -0.51855,-1.613282 -0.60498,-1.728515 -1.03711,-3.457031 -3.54346,5.761719 -10.11182,5.761719 -6.19385,0 -9.76611,-5.012695 -3.54346,-5.041504 -3.54346,-11.753907 0,-6.33789 3.54346,-10.774414 3.54345,-4.436523 9.85254,-4.436523 6.22265,0 10.0542,5.963379 0.51855,-2.103028 1.6997,-5.271973 z M 324.0386,55.588661 q 0,4.234863 1.78614,6.885254 1.81494,2.621582 4.6958,2.621582 2.76562,0 4.52295,-2.333496 1.75732,-2.333496 1.75732,-7.17334 0,-4.753418 -1.87256,-7.202148 -1.87256,-2.448731 -4.52295,-2.448731 -2.76562,0 -4.58056,2.535157 -1.78614,2.535156 -1.78614,7.115722 z"
             id="path137" />
          <path
             d="M 353.99951,70.799599 V 40.204872 h 8.09522 v 30.594727 z m -5.61767,-36.010742 v -6.942872 h 6.94287 v 6.942872 z m 12.38769,0 v -6.942872 h 6.97168 v 6.942872 z"
             id="path139" />
          <path
             d="m 370.24756,40.204872 h 8.09521 v 10.601563 l 9.44922,-10.601563 h 9.88135 l -12.30127,12.963867 13.25195,17.63086 H 389.146 l -8.95948,-12.214844 -1.84375,1.958984 v 10.25586 h -8.09521 z"
             id="path141" />
          <path
             d="m 431.03369,82.438271 h -8.09521 v -27.25293 q 0,-4.09082 -0.34571,-5.73291 -0.31689,-1.670899 -1.55566,-2.708008 -1.20996,-1.037109 -3.11133,-1.037109 -2.27588,0 -3.97558,1.296386 -1.69971,1.296387 -2.21827,3.341797 -0.48974,2.016602 -0.48974,6.597168 v 13.856934 h -8.09522 V 40.204872 h 7.51905 v 4.494141 q 4.00439,-5.185547 10.11181,-5.185547 3.54346,0 5.99219,1.526855 2.44873,1.526856 3.3418,3.889161 0.92187,2.362304 0.92187,6.856445 z m -18.37988,-45.978516 3.97558,-8.61377 h 9.07471 l -7.92236,8.61377 z"
             id="path143" />
          <path
             d="M 466.75684,70.799599 V 28.5662 h 31.31494 v 7.144532 h -22.81641 v 9.362792 h 21.23193 v 7.115723 h -21.23193 v 11.494629 h 23.62305 v 7.115723 z M 449.50049,36.056435 454.10986,28.5662 h 10.74561 l -9.47803,7.490235 z"
             id="path145" />
          <path
             d="M 514.46335,70.799599 502.13327,40.204872 h 8.49854 l 5.76171,15.614258 1.6709,5.214355 q 0.6626,-1.987793 0.83545,-2.621582 0.40332,-1.296386 0.86426,-2.592773 l 5.81934,-15.614258 h 8.32568 l -12.15723,30.594727 z"
             id="path147" />
          <path
             d="m 541.22601,40.204872 h 7.72071 q -3.77393,7.864746 -3.77393,16.132813 0,4.724609 1.6709,6.741211 1.69971,2.016601 4.00439,2.016601 1.58448,0 2.76563,-0.979492 1.20996,-0.979492 1.55566,-2.419922 0.34571,-1.44043 0.34571,-4.407715 v -9.276367 h 8.09521 v 9.276367 q 0,2.852051 0.3169,4.350098 0.3457,1.498047 1.55566,2.477539 1.23877,0.979492 2.79443,0.979492 2.41992,0 4.03321,-2.103027 1.64209,-2.103028 1.64209,-6.97168 0,-3.28418 -0.9795,-7.691894 -0.97949,-4.407715 -2.79443,-8.124024 h 7.7207 q 1.61328,2.679199 2.96729,7.346192 1.38281,4.638183 1.38281,8.527343 0,6.741211 -3.57226,11.091309 -3.57227,4.321289 -9.39161,4.321289 -6.97168,0 -9.70849,-6.424316 -2.76563,6.424316 -9.73731,6.424316 -5.84814,0 -9.42041,-4.350098 -3.54345,-4.350097 -3.54345,-11.0625 0,-3.88916 1.354,-8.527343 1.38281,-4.666993 2.99609,-7.346192 z"
             id="path149" />
          <path
             d="m 623.44586,40.204872 v 6.712402 h -7.40381 q 2.24707,3.831543 2.24707,8.469727 0,6.683594 -4.3789,11.408203 -4.3501,4.695801 -11.52344,4.695801 -7.00049,0 -11.35059,-4.378906 -4.32129,-4.378907 -4.32129,-11.465821 0,-7.029296 4.23487,-11.581054 4.26367,-4.551758 11.66748,-4.551758 2.16064,0 4.98389,0.691406 z m -28.43408,15.297363 q 0,4.378907 2.10303,6.885254 2.10302,2.506348 5.3872,2.506348 3.16895,0 5.30079,-2.419922 2.16064,-2.419922 2.16064,-7.115723 0,-4.148437 -2.04541,-6.683593 -2.04541,-2.563965 -5.41602,-2.563965 -3.31298,0 -5.41601,2.506348 -2.07422,2.506347 -2.07422,6.885253 z"
             id="path151" />
          <path
             d="m 656.80579,82.438271 h -8.09522 v -27.25293 q 0,-4.09082 -0.3457,-5.73291 -0.3169,-1.670899 -1.55567,-2.708008 -1.20996,-1.037109 -3.11132,-1.037109 -2.27588,0 -3.97559,1.296386 -1.69971,1.296387 -2.21826,3.341797 -0.48975,2.016602 -0.48975,6.597168 v 13.856934 h -8.09521 V 40.204872 h 7.51904 v 4.494141 q 4.00439,-5.185547 10.11182,-5.185547 3.54345,0 5.99218,1.526855 2.44873,1.526856 3.3418,3.889161 0.92188,2.362304 0.92188,6.856445 z"
             id="path153" />
        </g>
      </g>
    </g>
  </g>
</svg>
