<?xml version="1.0" encoding="UTF-8" standalone="no"?>
<!-- Created with Inkscape (http://www.inkscape.org/) -->

<svg
   version="1.1"
   id="svg2"
   width="1229.0533"
   height="294.49332"
   viewBox="0 0 1229.0533 294.49332"
   sodipodi:docname="EN_Funded_by_the_European_Union_RGB_NEG.eps"
   xmlns:inkscape="http://www.inkscape.org/namespaces/inkscape"
   xmlns:sodipodi="http://sodipodi.sourceforge.net/DTD/sodipodi-0.dtd"
   xmlns="http://www.w3.org/2000/svg"
   xmlns:svg="http://www.w3.org/2000/svg">
  <defs
     id="defs6" />
  <sodipodi:namedview
     id="namedview4"
     pagecolor="#ffffff"
     bordercolor="#000000"
     borderopacity="0.25"
     inkscape:showpageshadow="2"
     inkscape:pageopacity="0.0"
     inkscape:pagecheckerboard="0"
     inkscape:deskcolor="#d1d1d1" />
  <g
     id="g8"
     inkscape:groupmode="layer"
     inkscape:label="ink_ext_XXXXXX"
     transform="matrix(1.3333333,0,0,-1.3333333,0,294.49333)">
    <g
       id="g10"
       transform="scale(0.1)">
      <path
         d="M 102.336,101.059 H 3051.79 V 2103.9 H 102.336 V 101.059"
         style="fill:#ffffff;fill-opacity:1;fill-rule:nonzero;stroke:none"
         id="path12" />
      <path
         d="M 159.055,158.281 H 2995.08 V 2048.98 H 159.055 V 158.281"
         style="fill:#2a3c93;fill-opacity:1;fill-rule:nonzero;stroke:none"
         id="path14" />
      <path
         d="m 1516.64,1637.02 59.84,43.67 59.85,-43.67 -22.78,70.63 60.79,43.67 h -74.93 l -22.93,71.48 -22.93,-71.56 -74.88,0.08 60.74,-43.67 -22.77,-70.63"
         style="fill:#fbca07;fill-opacity:1;fill-rule:nonzero;stroke:none"
         id="path16" />
      <path
         d="m 1206.95,1553.82 59.84,43.67 59.81,-43.67 -22.74,70.63 60.75,43.67 h -74.93 l -22.92,71.56 -22.93,-71.64 -74.89,0.08 60.74,-43.67 -22.73,-70.63"
         style="fill:#fbca07;fill-opacity:1;fill-rule:nonzero;stroke:none"
         id="path18" />
      <path
         d="m 1040.19,1512.57 -22.93,-71.64 -74.881,0.08 60.741,-43.67 -22.772,-70.63 59.842,43.67 59.84,-43.67 -22.77,70.63 60.74,43.67 h -74.88 l -22.93,71.56"
         style="fill:#fbca07;fill-opacity:1;fill-rule:nonzero;stroke:none"
         id="path20" />
      <path
         d="m 957.066,1061.08 59.814,-43.67 -22.743,70.62 60.743,43.68 h -74.884 l -22.93,71.56 -22.929,-71.72 -74.918,0.16 60.777,-43.68 -22.769,-70.62 59.839,43.67"
         style="fill:#fbca07;fill-opacity:1;fill-rule:nonzero;stroke:none"
         id="path22" />
      <path
         d="m 1063.12,821.48 -22.93,71.559 -22.93,-71.641 -74.881,0.082 60.741,-43.671 -22.772,-70.629 59.842,43.75 59.84,-43.75 -22.77,70.629 60.74,43.671 h -74.88"
         style="fill:#fbca07;fill-opacity:1;fill-rule:nonzero;stroke:none"
         id="path24" />
      <path
         d="m 1290.15,594.449 -22.93,71.481 -22.89,-71.559 -74.92,0.078 60.74,-43.668 -22.73,-70.633 59.84,43.672 59.8,-43.672 -22.73,70.633 60.74,43.668 h -74.92"
         style="fill:#fbca07;fill-opacity:1;fill-rule:nonzero;stroke:none"
         id="path26" />
      <path
         d="m 1599.45,512.18 -22.93,71.558 -22.89,-71.636 -74.92,0.078 60.74,-43.668 -22.73,-70.633 59.84,43.672 59.8,-43.672 -22.77,70.633 60.78,43.668 h -74.92"
         style="fill:#fbca07;fill-opacity:1;fill-rule:nonzero;stroke:none"
         id="path28" />
      <path
         d="m 1908.75,594.449 -22.89,71.481 -22.97,-71.559 -74.84,0.078 60.7,-43.668 -22.73,-70.633 59.84,43.672 59.84,-43.672 -22.81,70.633 60.78,43.668 h -74.92"
         style="fill:#fbca07;fill-opacity:1;fill-rule:nonzero;stroke:none"
         id="path30" />
      <path
         d="m 2135.86,821.48 -22.97,71.559 -22.97,-71.641 -74.84,0.082 60.78,-43.671 -22.81,-70.629 59.84,43.75 59.84,-43.75 -22.81,70.629 60.78,43.671 h -74.84"
         style="fill:#fbca07;fill-opacity:1;fill-rule:nonzero;stroke:none"
         id="path32" />
      <path
         d="m 2292.97,1132.57 h -74.92 l -22.97,71.56 -22.89,-71.64 -74.92,0.08 60.78,-43.67 -22.74,-70.63 59.77,43.75 59.84,-43.75 -22.73,70.63 60.78,43.67"
         style="fill:#fbca07;fill-opacity:1;fill-rule:nonzero;stroke:none"
         id="path34" />
      <path
         d="m 2053.04,1327.65 59.84,43.67 59.85,-43.67 -22.81,70.63 60.78,43.59 h -74.85 l -22.97,71.56 -22.96,-71.64 -74.85,0.08 60.78,-43.59 -22.81,-70.63"
         style="fill:#fbca07;fill-opacity:1;fill-rule:nonzero;stroke:none"
         id="path36" />
      <path
         d="m 1886.72,1739.6 -22.89,-71.64 -74.92,0.16 60.7,-43.75 -22.73,-70.63 59.92,43.75 59.76,-43.75 -22.73,70.63 60.78,43.75 h -75 l -22.89,71.48"
         style="fill:#fbca07;fill-opacity:1;fill-rule:nonzero;stroke:none"
         id="path38" />
      <g
         id="g40"
         transform="scale(10)">
        <g
           aria-label="NextGenerationEU"
           transform="matrix(1,0,0,-1,330.686,15.8941)"
           id="text44"
           style="font-size:51px;font-family:Arial;-inkscape-font-specification:ArialMT;fill:#ffffff">
          <path
             d="M 3.8847656,0 V -36.506836 H 8.840332 L 28.015137,-7.8442383 V -36.506836 h 4.631836 V 0 H 27.691406 L 8.5166016,-28.6875 V 0 Z"
             id="path52" />
          <path
             d="m 58.296928,-8.5166016 4.631836,0.5727539 q -1.095703,4.0590821 -4.059082,6.300293 -2.963379,2.24121095 -7.570312,2.24121095 -5.802246,0 -9.213867,-3.56103515 -3.386719,-3.5859375 -3.386719,-10.0356441 0,-6.673829 3.436523,-10.359375 3.436524,-3.685547 8.915039,-3.685547 5.3042,0 8.666016,3.61084 3.361816,3.610839 3.361816,10.160156 0,0.398437 -0.0249,1.195312 H 43.33062 q 0.249023,4.3579104 2.465332,6.6738284 2.216308,2.315918 5.52832,2.315918 2.465332,0 4.208496,-1.2949219 1.743164,-1.2949219 2.76416,-4.1337891 z M 43.579643,-15.763184 h 14.76709 q -0.298828,-3.336914 -1.693359,-5.005371 -2.141602,-2.589843 -5.553223,-2.589843 -3.087891,0 -5.20459,2.066894 -2.091797,2.066895 -2.315918,5.52832 z"
             id="path54" />
          <path
             d="m 65.56794,0 9.662109,-13.746094 -8.939941,-12.700195 h 5.603027 l 4.059082,6.200684 q 1.145508,1.768066 1.842774,2.963378 1.095703,-1.643554 2.017089,-2.913574 l 4.45752,-6.250488 h 5.354004 L 80.484444,-13.995117 90.320869,0 H 84.817451 L 79.388741,-8.2177734 77.944405,-10.434082 70.996651,0 Z"
             id="path56" />
          <path
             d="m 103.84284,-4.0092773 0.64746,3.95947261 q -1.89258,0.3984375 -3.38672,0.3984375 -2.440425,0 -3.785152,-0.77197265 Q 95.973701,-1.1953125 95.42585,-2.4404297 94.877998,-3.7104492 94.877998,-7.7446289 V -22.959961 h -3.287109 v -3.486328 h 3.287109 v -6.549316 l 4.45752,-2.689454 v 9.23877 h 4.507322 v 3.486328 h -4.507322 v 15.4643555 q 0,1.9174805 0.224121,2.4653321 0.249023,0.5478515 0.771971,0.871582 0.54785,0.3237305 1.54395,0.3237305 0.74707,0 1.96728,-0.1743164 z"
             id="path58" />
          <path
             d="m 125.88188,-14.318848 v -4.283203 l 15.46436,-0.0249 v 13.5468749 q -3.56104,2.8388672 -7.34619,4.2832031 -3.78516,1.41943359 -7.76954,1.41943359 -5.3789,0 -9.78662,-2.29101559 -4.38281,-2.315918 -6.62402,-6.6738282 -2.24121,-4.3579098 -2.24121,-9.7368168 0,-5.329101 2.21631,-9.936035 2.24121,-4.631836 6.4248,-6.873047 4.1836,-2.241211 9.63721,-2.241211 3.95947,0 7.14697,1.294922 3.2124,1.27002 5.03028,3.561036 1.81787,2.291015 2.76416,5.976562 l -4.35791,1.195313 q -0.82178,-2.789063 -2.042,-4.382813 -1.22021,-1.59375 -3.48632,-2.540039 -2.26612,-0.971191 -5.03028,-0.971191 -3.31201,0 -5.72754,1.020996 -2.41552,0.996093 -3.90967,2.639648 -1.46923,1.643555 -2.29101,3.61084 -1.39453,3.386719 -1.39453,7.346191 0,4.88086 1.66845,8.167969 1.69336,3.2871094 4.90577,4.8808594 3.2124,1.59375 6.82324,1.59375 3.13769,0 6.12598,-1.1953125 2.98828,-1.2202148 4.53222,-2.5898437 v -6.7983402 z"
             id="path60" />
          <path
             d="m 165.99904,-8.5166016 4.63183,0.5727539 q -1.0957,4.0590821 -4.05908,6.300293 -2.96338,2.24121095 -7.57031,2.24121095 -5.80225,0 -9.21387,-3.56103515 -3.38672,-3.5859375 -3.38672,-10.0356441 0,-6.673829 3.43653,-10.359375 3.43652,-3.685547 8.91504,-3.685547 5.3042,0 8.66601,3.61084 3.36182,3.610839 3.36182,10.160156 0,0.398437 -0.0249,1.195312 h -19.72266 q 0.24902,4.3579104 2.46533,6.6738284 2.21631,2.315918 5.52832,2.315918 2.46533,0 4.2085,-1.2949219 1.74316,-1.2949219 2.76416,-4.1337891 z m -14.71729,-7.2465824 h 14.76709 q -0.29882,-3.336914 -1.69336,-5.005371 -2.1416,-2.589843 -5.55322,-2.589843 -3.08789,0 -5.20459,2.066894 -2.0918,2.066895 -2.31592,5.52832 z"
             id="path62" />
          <path
             d="m 176.25934,0 v -26.446289 h 4.03418 v 3.760254 q 2.91357,-4.35791 8.41699,-4.35791 2.39063,0 4.38281,0.871582 2.01709,0.846679 3.01319,2.241211 0.99609,1.394531 1.39453,3.312011 0.24902,1.245118 0.24902,4.357911 V 0 h -4.48242 v -16.086914 q 0,-2.739258 -0.52295,-4.083984 -0.52295,-1.369629 -1.86768,-2.166504 -1.31982,-0.821778 -3.11279,-0.821778 -2.86377,0 -4.95557,1.817871 -2.06689,1.817872 -2.06689,6.89795 V 0 Z"
             id="path64" />
          <path
             d="m 222.72661,-8.5166016 4.63183,0.5727539 q -1.0957,4.0590821 -4.05908,6.300293 -2.96338,2.24121095 -7.57031,2.24121095 -5.80225,0 -9.21387,-3.56103515 -3.38672,-3.5859375 -3.38672,-10.0356441 0,-6.673829 3.43653,-10.359375 3.43652,-3.685547 8.91504,-3.685547 5.3042,0 8.66601,3.61084 3.36182,3.610839 3.36182,10.160156 0,0.398437 -0.0249,1.195312 H 207.7603 q 0.24902,4.3579104 2.46533,6.6738284 2.21631,2.315918 5.52832,2.315918 2.46533,0 4.2085,-1.2949219 1.74316,-1.2949219 2.76416,-4.1337891 z m -14.71729,-7.2465824 h 14.76709 q -0.29883,-3.336914 -1.69336,-5.005371 -2.1416,-2.589843 -5.55322,-2.589843 -3.08789,0 -5.20459,2.066894 -2.0918,2.066895 -2.31592,5.52832 z"
             id="path66" />
          <path
             d="m 232.93613,0 v -26.446289 h 4.03418 v 4.009277 q 1.54394,-2.813965 2.83886,-3.710449 1.31983,-0.896484 2.88868,-0.896484 2.26611,0 4.60693,1.444336 l -1.54395,4.158691 q -1.64355,-0.971191 -3.28711,-0.971191 -1.46923,0 -2.63964,0.896484 -1.17041,0.871582 -1.66846,2.44043 -0.74707,2.390625 -0.74707,5.229492 V 0 Z"
             id="path68" />
          <path
             d="m 267.22763,-3.262207 q -2.49023,2.1166992 -4.80615,2.98828122 -2.29102,0.87158203 -4.93067,0.87158203 -4.35791,0 -6.69873,-2.11669925 -2.34082,-2.1416015 -2.34082,-5.4536132 0,-1.9423829 0.87159,-3.5361328 0.89648,-1.618652 2.31591,-2.589844 1.44434,-0.971191 3.23731,-1.469238 1.31982,-0.348633 3.98437,-0.672363 5.42871,-0.647461 7.99366,-1.543946 0.0249,-0.921386 0.0249,-1.17041 0,-2.739258 -1.27002,-3.859863 -1.71826,-1.519043 -5.10498,-1.519043 -3.1626,0 -4.68164,1.120605 -1.49414,1.095704 -2.21631,3.909668 l -4.38281,-0.597656 q 0.59765,-2.813965 1.96728,-4.532226 1.36963,-1.743165 3.95947,-2.664551 2.58985,-0.946289 6.00147,-0.946289 3.38672,0 5.50342,0.796875 2.1167,0.796875 3.11279,2.01709 0.99609,1.195312 1.39453,3.038085 0.22412,1.145508 0.22412,4.13379 v 5.976562 q 0,6.2504883 0.27393,7.9189453 Q 271.95908,-1.519043 272.80576,0 h -4.68165 q -0.69726,-1.3945312 -0.89648,-3.262207 z m -0.37353,-10.010742 q -2.44043,0.996094 -7.32129,1.693359 -2.76416,0.398438 -3.90967,0.896485 -1.14551,0.498046 -1.76807,1.4692378 -0.62256,0.9462891 -0.62256,2.1166992 0,1.7929688 1.34473,2.9882813 1.36963,1.1953125 3.98437,1.1953125 2.58985,0 4.60694,-1.1206055 2.01709,-1.1455078 2.96338,-3.112793 0.72217,-1.5190429 0.72217,-4.4824223 z"
             id="path70" />
          <path
             d="m 288.12021,-4.0092773 0.64746,3.95947261 q -1.89258,0.3984375 -3.38672,0.3984375 -2.44043,0 -3.78516,-0.77197265 -1.34472,-0.77197266 -1.89257,-2.01708986 -0.54786,-1.2700195 -0.54786,-5.3041992 V -22.959961 h -3.2871 v -3.486328 h 3.2871 v -6.549316 l 4.45752,-2.689454 v 9.23877 h 4.50733 v 3.486328 h -4.50733 v 15.4643555 q 0,1.9174805 0.22413,2.4653321 0.24902,0.5478515 0.77197,0.871582 0.54785,0.3237305 1.54394,0.3237305 0.74707,0 1.96729,-0.1743164 z"
             id="path72" />
          <path
             d="m 292.52841,-31.352051 v -5.154785 h 4.48242 v 5.154785 z m 0,31.352051 v -26.446289 h 4.48242 V 0 Z"
             id="path74" />
          <path
             d="m 302.16513,-13.223145 q 0,-7.346191 4.08398,-10.882324 3.41163,-2.938476 8.31739,-2.938476 5.45361,0 8.91504,3.585937 3.46142,3.561035 3.46142,9.861328 0,5.1049808 -1.54394,8.0434573 -1.51905,2.9135743 -4.45752,4.5322266 -2.91358,1.61865235 -6.375,1.61865235 -5.55322,0 -8.98975,-3.56103515 -3.41162,-3.5610352 -3.41162,-10.2597661 z m 4.60693,0 q 0,5.0800786 2.21631,7.6201177 2.21631,2.5151367 5.57813,2.5151367 3.33691,0 5.55322,-2.5400391 2.21631,-2.5400391 2.21631,-7.7446293 0,-4.905761 -2.24121,-7.420898 -2.21631,-2.540039 -5.52832,-2.540039 -3.36182,0 -5.57813,2.515137 -2.21631,2.515136 -2.21631,7.595214 z"
             id="path76" />
          <path
             d="m 332.1969,0 v -26.446289 h 4.03418 v 3.760254 q 2.91357,-4.35791 8.41699,-4.35791 2.39063,0 4.38281,0.871582 2.01709,0.846679 3.01319,2.241211 0.99609,1.394531 1.39453,3.312011 0.24902,1.245118 0.24902,4.357911 V 0 h -4.48242 v -16.086914 q 0,-2.739258 -0.52295,-4.083984 -0.52295,-1.369629 -1.86767,-2.166504 -1.31983,-0.821778 -3.1128,-0.821778 -2.86377,0 -4.95556,1.817871 -2.0669,1.817872 -2.0669,6.89795 V 0 Z"
             id="path78" />
          <path
             d="m 361.23358,0 v -36.506836 h 26.39649 v 4.308106 h -21.56543 v 11.181152 h 20.1958 v 4.283203 h -20.1958 v 12.4262695 h 22.41211 V 0 Z"
             id="path80" />
          <path
             d="m 419.10703,-36.506836 h 4.83105 v 21.092285 q 0,5.5034182 -1.24512,8.7407229 -1.24511,3.2373047 -4.50732,5.2792969 -3.23731,2.01708979 -8.5166,2.01708979 -5.12989,0 -8.39209,-1.76806639 -3.26221,-1.7680664 -4.65674,-5.1049805 -1.39453,-3.3618164 -1.39453,-9.1640627 v -21.092285 h 4.83105 v 21.067383 q 0,4.756348 0.87158,7.0224608 0.89649,2.241211 3.03809,3.4614258 2.1665,1.2202148 5.2793,1.2202148 5.3291,0 7.59521,-2.4155273 2.26612,-2.4155274 2.26612,-9.2885741 z"
             id="path82" />
        </g>
        <g
           aria-label="Funded by 
the European Union"
           transform="matrix(1,0,0,-1,330.26803,162.6741)"
           id="text50"
           style="font-weight:bold;font-size:59px;font-family:Arial;-inkscape-font-specification:Arial-BoldMT;fill:#ffffff">
          <path
             d="M 4.3500977,0 V -42.233398 H 33.302734 v 7.144531 H 12.877441 v 9.996582 h 17.63086 v 7.144531 H 12.877441 V 0 Z"
             id="path85" />
          <path
             d="m 60.411182,0 v -4.5805664 q -1.670898,2.4487305 -4.407714,3.86035156 -2.708008,1.41162109 -5.732911,1.41162109 -3.082519,0 -5.53125,-1.35400391 -2.44873,-1.35400394 -3.543457,-3.80273434 -1.094726,-2.4487305 -1.094726,-6.77002 v -19.359375 h 8.095215 v 14.058594 q 0,6.453125 0.432129,7.9223635 0.460937,1.4404297 1.642089,2.3046875 1.181153,0.8354492 2.996094,0.8354492 2.074219,0 3.716309,-1.1235352 1.64209,-1.1523437 2.24707,-2.8232422 0.604981,-1.6997068 0.604981,-8.2680668 v -12.90625 h 8.095214 V 0 Z"
             id="path87" />
          <path
             d="m 104.14307,0 h -8.095218 v -15.614258 q 0,-4.955078 -0.518555,-6.395508 -0.518555,-1.469238 -1.699707,-2.275879 -1.152344,-0.80664 -2.794434,-0.80664 -2.103027,0 -3.773926,1.152344 -1.670898,1.152343 -2.304687,3.053711 -0.604981,1.901367 -0.604981,7.029296 V 0 h -8.095214 v -30.594727 h 7.519043 v 4.494141 q 4.004394,-5.185547 10.083007,-5.185547 2.6792,0 4.897461,0.979492 2.218261,0.950684 3.341801,2.448731 1.15234,1.498047 1.58447,3.399414 0.46094,1.901367 0.46094,5.444824 z"
             id="path89" />
          <path
             d="m 140.41351,0 h -7.51905 v -4.4941406 q -1.87256,2.621582 -4.43652,3.91796873 -2.53516,1.26757812 -5.12793,1.26757812 -5.27197,0 -9.0459,-4.23486325 -3.74512,-4.2636719 -3.74512,-11.869141 0,-7.77832 3.6587,-11.811523 3.65869,-4.062012 9.24755,-4.062012 5.12793,0 8.87305,4.263672 v -15.210937 h 8.09522 z m -21.60645,-15.959961 q 0,4.897461 1.354,7.0869141 1.95899,3.1689453 5.47364,3.1689453 2.79443,0 4.75341,-2.3623047 1.95899,-2.3911137 1.95899,-7.1157227 0,-5.271973 -1.90137,-7.57666 -1.90137,-2.333496 -4.86865,-2.333496 -2.88086,0 -4.83984,2.304687 -1.93018,2.275879 -1.93018,6.827637 z"
             id="path91" />
          <path
             d="m 166.11031,-9.7373047 8.0664,1.3540039 q -1.55566,4.4365235 -4.92627,6.7700196 -3.34179,2.30468745 -8.3833,2.30468745 -7.97998,0 -11.81152,-5.21435545 -3.0249,-4.1772461 -3.0249,-10.5439458 0,-7.605468 3.97558,-11.897949 3.97559,-4.321289 10.0542,-4.321289 6.82764,0 10.77442,4.522949 3.94677,4.494141 3.77392,13.799317 h -20.28125 q 0.0864,3.601074 1.95899,5.6176756 1.87255,1.987793 4.66699,1.987793 1.90136,0 3.19775,-1.0371094 1.29639,-1.0371094 1.95899,-3.3417969 z m 0.46093,-8.1816403 q -0.0864,-3.514649 -1.81494,-5.32959 -1.72851,-1.84375 -4.20605,-1.84375 -2.65039,0 -4.37891,1.930176 -1.72851,1.930175 -1.69971,5.243164 z"
             id="path93" />
          <path
             d="m 209.26509,0 h -7.51904 v -4.4941406 q -1.87256,2.621582 -4.43653,3.91796873 -2.53515,1.26757812 -5.12793,1.26757812 -5.27197,0 -9.04589,-4.23486325 -3.74512,-4.2636719 -3.74512,-11.869141 0,-7.77832 3.65869,-11.811523 3.65869,-4.062012 9.24756,-4.062012 5.12793,0 8.87305,4.263672 v -15.210937 h 8.09521 z m -21.60644,-15.959961 q 0,4.897461 1.354,7.0869141 1.95898,3.1689453 5.47363,3.1689453 2.79444,0 4.75342,-2.3623047 1.95898,-2.3911137 1.95898,-7.1157227 0,-5.271973 -1.90136,-7.57666 -1.90137,-2.333496 -4.86865,-2.333496 -2.88086,0 -4.83985,2.304687 -1.93017,2.275879 -1.93017,6.827637 z"
             id="path95" />
          <path
             d="m 233.29138,0 v -42.233398 h 8.09522 v 15.210937 q 3.74511,-4.263672 8.87304,-4.263672 5.58887,0 9.24756,4.062012 3.65869,4.033203 3.65869,11.609863 0,7.8359377 -3.74511,12.070801 -3.71631,4.23486325 -9.0459,4.23486325 -2.62158,0 -5.18555,-1.29638672 -2.53516,-1.32519533 -4.37891,-3.88916013 V 0 Z m 8.0376,-15.959961 q 0,4.753418 1.49805,7.0292969 2.10302,3.2265625 5.58886,3.2265625 2.6792,0 4.55176,-2.2758789 1.90137,-2.3046875 1.90137,-7.2309575 0,-5.243164 -1.90137,-7.547851 -1.90137,-2.333496 -4.86865,-2.333496 -2.90967,0 -4.83984,2.275879 -1.93018,2.24707 -1.93018,6.856445 z"
             id="path97" />
          <path
             d="m 265.84552,-30.594727 h 8.61377 l 7.31738,21.7216801 7.14453,-21.7216801 h 8.3833 l -10.80322,29.4423833 -1.93017,5.3295898 q -1.06592,2.6791992 -2.04541,4.0908203 -0.95069,1.4116211 -2.21827,2.2758786 -1.23877,0.893067 -3.08252,1.382813 -1.81494,0.489746 -4.11962,0.489746 -2.3335,0 -4.58057,-0.489746 L 267.8045,5.5888672 q 1.90137,0.3745117 3.42823,0.3745117 2.82324,0 4.17724,-1.6708984 1.35401,-1.6420899 2.07422,-4.20605472 z"
             id="path99" />
          <path
             d="m 18.264648,40.205673 v 6.453125 h -5.53125 v 12.330078 q 0,3.745118 0.144043,4.378907 0.172852,0.60498 0.720215,1.0083 0.576172,0.403321 1.382813,0.403321 1.123535,0 3.255371,-0.777832 l 0.691406,6.280273 q -2.823242,1.209961 -6.395508,1.209961 -2.189453,0 -3.9467771,-0.720215 Q 6.8276367,70.022568 5.9921875,68.870224 5.1855469,67.689072 4.8686523,65.701279 4.609375,64.289658 4.609375,59.997177 V 46.658798 H 0.89306641 V 40.205673 H 4.609375 V 34.12706 l 8.124023,-4.724609 v 10.803222 z"
             id="path101" />
          <path
             d="m 31.948782,28.567001 v 15.527832 q 3.917969,-4.580566 9.362793,-4.580566 2.794434,0 5.041504,1.037109 2.24707,1.03711 3.370605,2.650391 1.152344,1.613281 1.555664,3.572266 0.432129,1.958984 0.432129,6.078613 V 70.8004 H 43.616262 V 54.638779 q 0,-4.811035 -0.460937,-6.107422 -0.460938,-1.296387 -1.64209,-2.04541 -1.152344,-0.777832 -2.909668,-0.777832 -2.016601,0 -3.601074,0.979492 -1.584473,0.979492 -2.333496,2.967285 -0.720215,1.958984 -0.720215,5.819336 V 70.8004 H 23.853567 V 28.567001 Z"
             id="path103" />
          <path
             d="m 77.639652,61.063095 8.066407,1.354004 q -1.555665,4.436523 -4.92627,6.77002 -3.341797,2.304687 -8.383301,2.304687 -7.97998,0 -11.811523,-5.214355 -3.024903,-4.177247 -3.024903,-10.543946 0,-7.605469 3.975586,-11.897949 3.975586,-4.321289 10.0542,-4.321289 6.827636,0 10.774414,4.522949 3.946777,4.494141 3.773925,13.799317 h -20.28125 q 0.08643,3.601074 1.958985,5.617675 1.872558,1.987793 4.666992,1.987793 1.901367,0 3.197754,-1.037109 1.296387,-1.037109 1.958984,-3.341797 z m 0.460938,-8.181641 q -0.08643,-3.514648 -1.814942,-5.329589 -1.728515,-1.84375 -4.206054,-1.84375 -2.650391,0 -4.378907,1.930175 -1.728515,1.930176 -1.699707,5.243164 z"
             id="path105" />
          <path
             d="M 109.18506,70.8004 V 28.567001 H 140.5 v 7.144532 h -22.7876 v 9.362793 h 21.20313 v 7.115722 H 117.7124 v 11.494629 h 23.59424 V 70.8004 Z"
             id="path107" />
          <path
             d="m 168.61627,70.8004 v -4.580567 q -1.6709,2.448731 -4.40771,3.860352 -2.70801,1.411621 -5.73291,1.411621 -3.08252,0 -5.53125,-1.354004 -2.44873,-1.354004 -3.54346,-3.802734 -1.09473,-2.448731 -1.09473,-6.77002 V 40.205673 h 8.09522 v 14.058594 q 0,6.453125 0.43213,7.922363 0.46093,1.44043 1.64209,2.304688 1.18115,0.835449 2.99609,0.835449 2.07422,0 3.71631,-1.123535 1.64209,-1.152344 2.24707,-2.823242 0.60498,-1.699707 0.60498,-8.268067 v -12.90625 h 8.09521 V 70.8004 Z"
             id="path109" />
          <path
             d="m 192.26855,70.8004 h -8.09521 V 40.205673 h 7.51904 v 4.350098 q 1.93018,-3.08252 3.45703,-4.062012 1.55567,-0.979492 3.51465,-0.979492 2.76563,0 5.32959,1.526855 l -2.50635,7.058106 q -2.04541,-1.325195 -3.80273,-1.325195 -1.69971,0 -2.88086,0.950683 -1.18115,0.921875 -1.87256,3.370606 -0.6626,2.44873 -0.6626,10.255859 z"
             id="path111" />
          <path
             d="m 205.60651,55.070908 q 0,-4.033204 1.98779,-7.807129 1.98779,-3.773926 5.61768,-5.761719 3.65869,-1.987793 8.15283,-1.987793 6.94287,0 11.37939,4.522949 4.43653,4.494141 4.43653,11.379395 0,6.942871 -4.49415,11.523437 -4.46533,4.551758 -11.26416,4.551758 -4.20605,0 -8.03759,-1.901367 -3.80274,-1.901367 -5.79053,-5.560059 -1.98779,-3.6875 -1.98779,-8.959472 z m 8.29687,0.432128 q 0,4.551758 2.16065,6.97168 2.16064,2.419922 5.32959,2.419922 3.16894,0 5.30078,-2.419922 2.16064,-2.419922 2.16064,-7.029297 0,-4.49414 -2.16064,-6.914062 -2.13184,-2.419922 -5.30078,-2.419922 -3.16895,0 -5.32959,2.419922 -2.16065,2.419922 -2.16065,6.971679 z"
             id="path113" />
          <path
             d="m 243.28857,40.205673 h 7.54786 v 4.494141 q 1.46923,-2.304688 3.97558,-3.745117 2.50635,-1.44043 5.56006,-1.44043 5.32959,0 9.0459,4.177246 3.71631,4.177246 3.71631,11.638672 0,7.663086 -3.74512,11.926758 -3.74512,4.234863 -9.07471,4.234863 -2.53515,0 -4.60937,-1.008301 -2.04541,-1.008301 -4.32129,-3.457031 v 15.412598 h -8.09522 z m 8.00879,14.778809 q 0,5.156738 2.04541,7.634277 2.04541,2.448731 4.98389,2.448731 2.82324,0 4.6958,-2.247071 1.87256,-2.275879 1.87256,-7.432617 0,-4.811035 -1.93018,-7.144531 -1.93017,-2.333496 -4.78222,-2.333496 -2.96729,0 -4.92627,2.304687 -1.95899,2.275879 -1.95899,6.77002 z"
             id="path115" />
          <path
             d="m 297.27634,61.063095 8.0664,1.354004 q -1.55566,4.436523 -4.92627,6.77002 -3.34179,2.304687 -8.3833,2.304687 -7.97998,0 -11.81152,-5.214355 -3.0249,-4.177247 -3.0249,-10.543946 0,-7.605469 3.97558,-11.897949 3.97559,-4.321289 10.0542,-4.321289 6.82764,0 10.77442,4.522949 3.94677,4.494141 3.77392,13.799317 h -20.28125 q 0.0864,3.601074 1.95899,5.617675 1.87255,1.987793 4.66699,1.987793 1.90137,0 3.19775,-1.037109 1.29639,-1.037109 1.95899,-3.341797 z m 0.46093,-8.181641 q -0.0864,-3.514648 -1.81494,-5.329589 -1.72851,-1.84375 -4.20605,-1.84375 -2.65039,0 -4.37891,1.930175 -1.72851,1.930176 -1.69971,5.243164 z"
             id="path117" />
          <path
             d="m 318.42136,49.539658 -7.3462,-1.325196 q 1.23877,-4.436523 4.26368,-6.568359 3.0249,-2.131836 8.98828,-2.131836 5.41601,0 8.0664,1.296387 2.65039,1.267578 3.71631,3.255371 1.09473,1.958984 1.09473,7.230957 l -0.0864,9.449219 q 0,4.033203 0.37452,5.963378 0.40332,1.901368 1.46923,4.090821 h -8.00879 q -0.31689,-0.806641 -0.77783,-2.391114 -0.20166,-0.720214 -0.28808,-0.950683 -2.07422,2.016601 -4.43653,3.024902 -2.3623,1.008301 -5.0415,1.008301 -4.72461,0 -7.46143,-2.563965 -2.708,-2.563965 -2.708,-6.481933 0,-2.592774 1.23877,-4.609375 1.23876,-2.045411 3.45703,-3.111329 2.24707,-1.094726 6.45312,-1.901367 5.67529,-1.065918 7.86475,-1.987793 v -0.80664 q 0,-2.333496 -1.15235,-3.312989 -1.15234,-1.0083 -4.35009,-1.0083 -2.16065,0 -3.37061,0.864257 -1.20996,0.83545 -1.95898,2.967286 z m 10.83203,6.568359 q -1.55567,0.518555 -4.92627,1.238769 -3.37061,0.720215 -4.40772,1.411622 -1.58447,1.123535 -1.58447,2.85205 0,1.699707 1.26758,2.938477 1.26758,1.238769 3.22656,1.238769 2.18945,0 4.17725,-1.440429 1.46924,-1.094727 1.93017,-2.679199 0.3169,-1.03711 0.3169,-3.946778 z"
             id="path119" />
          <path
             d="m 373.01315,70.8004 h -8.09521 V 55.186142 q 0,-4.955078 -0.51856,-6.395508 -0.51855,-1.469238 -1.6997,-2.275879 -1.15235,-0.80664 -2.79444,-0.80664 -2.10302,0 -3.77392,1.152343 -1.6709,1.152344 -2.30469,3.053711 -0.60498,1.901367 -0.60498,7.029297 V 70.8004 h -8.09522 V 40.205673 h 7.51905 v 4.494141 q 4.00439,-5.185547 10.08301,-5.185547 2.67919,0 4.89746,0.979492 2.21826,0.950684 3.34179,2.448731 1.15235,1.498046 1.58448,3.399414 0.46093,1.901367 0.46093,5.444824 z"
             id="path121" />
          <path
             d="m 397.6156,28.567001 h 8.52734 v 22.874024 q 0,5.444824 0.3169,7.058105 0.54736,2.592774 2.59277,4.177246 2.07422,1.555664 5.64649,1.555664 3.62988,0 5.47363,-1.469238 1.84375,-1.498047 2.21826,-3.658691 0.37451,-2.160645 0.37451,-7.17334 v -23.36377 h 8.52735 v 22.182618 q 0,7.605468 -0.69141,10.745605 -0.69141,3.140137 -2.56396,5.300781 -1.84375,2.160645 -4.95508,3.457031 -3.11133,1.267579 -8.12403,1.267579 -6.0498,0 -9.18994,-1.382813 -3.11133,-1.411621 -4.92627,-3.629883 -1.81494,-2.24707 -2.39111,-4.6958 -0.83545,-3.629883 -0.83545,-10.716797 z"
             id="path123" />
          <path
             d="m 468.0531,70.8004 h -8.09521 V 55.186142 q 0,-4.955078 -0.51856,-6.395508 -0.51855,-1.469238 -1.69971,-2.275879 -1.15234,-0.80664 -2.79443,-0.80664 -2.10303,0 -3.77393,1.152343 -1.67089,1.152344 -2.30468,3.053711 -0.60498,1.901367 -0.60498,7.029297 V 70.8004 h -8.09522 V 40.205673 h 7.51904 v 4.494141 q 4.0044,-5.185547 10.08301,-5.185547 2.6792,0 4.89746,0.979492 2.21827,0.950684 3.3418,2.448731 1.15234,1.498046 1.58447,3.399414 0.46094,1.901367 0.46094,5.444824 z"
             id="path125" />
          <path
             d="m 476.26398,36.057236 v -7.490235 h 8.09521 v 7.490235 z m 0,34.743164 V 40.205673 h 8.09521 V 70.8004 Z"
             id="path127" />
          <path
             d="m 490.78302,55.070908 q 0,-4.033204 1.98779,-7.807129 1.9878,-3.773926 5.61768,-5.761719 3.65869,-1.987793 8.15283,-1.987793 6.94287,0 11.3794,4.522949 4.43652,4.494141 4.43652,11.379395 0,6.942871 -4.49414,11.523437 -4.46533,4.551758 -11.26416,4.551758 -4.20606,0 -8.0376,-1.901367 -3.80273,-1.901367 -5.79053,-5.560059 -1.98779,-3.6875 -1.98779,-8.959472 z m 8.29688,0.432128 q 0,4.551758 2.16064,6.97168 2.16064,2.419922 5.32959,2.419922 3.16894,0 5.30078,-2.419922 2.16065,-2.419922 2.16065,-7.029297 0,-4.49414 -2.16065,-6.914062 -2.13184,-2.419922 -5.30078,-2.419922 -3.16895,0 -5.32959,2.419922 -2.16064,2.419922 -2.16064,6.971679 z"
             id="path129" />
          <path
             d="M 556.52472,70.8004 H 548.4295 V 55.186142 q 0,-4.955078 -0.51855,-6.395508 -0.51855,-1.469238 -1.69971,-2.275879 -1.15234,-0.80664 -2.79443,-0.80664 -2.10303,0 -3.77393,1.152343 -1.6709,1.152344 -2.30468,3.053711 -0.60498,1.901367 -0.60498,7.029297 V 70.8004 H 528.638 V 40.205673 h 7.51904 v 4.494141 q 4.0044,-5.185547 10.08301,-5.185547 2.6792,0 4.89746,0.979492 2.21826,0.950684 3.3418,2.448731 1.15234,1.498046 1.58447,3.399414 0.46094,1.901367 0.46094,5.444824 z"
             id="path131" />
        </g>
      </g>
    </g>
  </g>
</svg>
