<?xml version="1.0" encoding="UTF-8" standalone="no"?>
<svg
   width="100%"
   height="100%"
   viewBox="0 0 512 512"
   version="1.1"
   xml:space="preserve"
   style="fill-rule:evenodd;clip-rule:evenodd;stroke-linejoin:round;stroke-miterlimit:2;"
   id="svg17"
   xmlns="http://www.w3.org/2000/svg"
   xmlns:svg="http://www.w3.org/2000/svg"><defs
     id="defs21" /><g
     id="g15"
     transform="matrix(1.826352,0,0,1.7917526,-0.49994295,6)"><g
       id="g13"><circle
         cx="148.201"
         cy="103.113"
         r="11.154"
         style="fill:#ff005e"
         id="circle9" /><path
         d="m 53.725,29.952 c -5.367,-3.44 -11.749,-5.436 -18.594,-5.436 -19.055,0 -34.526,15.47 -34.526,34.526 0,19.055 15.471,34.526 34.526,34.526 19.056,0 34.526,-15.471 34.526,-34.526 0,-5.505 -1.291,-10.711 -3.587,-15.331 20.531,-15.843 46.257,-25.27 74.167,-25.27 67.09,0 121.559,54.469 121.559,121.559 0,2.926 -0.091,5.828 -0.282,8.702 L 189.9,148.428 c 0,0 0.014,-59.414 0.014,-59.414 0.001,-2.853 -1.319,-5.546 -3.574,-7.293 L 154.391,56.978 c -3.319,-2.571 -7.956,-2.575 -11.279,-0.01 L 111.55,81.324 c -2.262,1.746 -3.587,4.442 -3.587,7.3 v 18.886 c 0,0 -32.142,5.832 -32.142,5.832 -4.385,0.795 -7.574,4.614 -7.574,9.072 v 25.979 c 0,0 -53.163,0 -53.163,0 -1.003,0 -1.968,0.16 -2.872,0.456 -0.899,-0.151 -1.836,-0.171 -2.787,-0.04 -5.042,0.693 -8.572,5.349 -7.879,10.39 C 10.921,227.395 69.482,280 140.237,280 c 28.102,0 54.281,-8.299 76.22,-22.575 0.101,-0.066 0.201,-0.133 0.299,-0.203 5.803,4.422 13.047,7.05 20.899,7.05 19.056,0 34.526,-15.471 34.526,-34.526 0,-19.056 -15.47,-34.526 -34.526,-34.526 -19.055,0 -34.526,15.47 -34.526,34.526 0,4.506 0.866,8.812 2.438,12.759 -18.871,12.062 -41.291,19.054 -65.33,19.054 -57.873,0 -106.358,-40.528 -118.583,-94.725 h 55.813 c 5.093,0 9.221,-4.128 9.221,-9.221 v -27.501 c 0,0 32.142,-5.831 32.142,-5.831 4.385,-0.796 7.574,-4.615 7.574,-9.072 V 93.155 c 0,0 22.331,-17.233 22.331,-17.233 0,0 22.737,17.61 22.737,17.61 0,0 -0.015,64.079 -0.015,64.079 -0.002,5.079 4.105,9.203 9.185,9.223 l 86.281,0.33 c 0.504,0.002 0.998,-0.036 1.48,-0.113 0.06,0.01 0.121,0.019 0.182,0.027 5.042,0.693 9.697,-2.837 10.39,-7.879 0.863,-6.277 1.262,-12.686 1.262,-19.199 0,-77.268 -62.732,-140 -140,-140 -32.642,0 -62.689,11.195 -86.512,29.952 z m 183.93,181.865 c 9.895,0 17.929,8.033 17.929,17.929 0,9.895 -8.034,17.929 -17.929,17.929 -9.895,0 -17.929,-8.034 -17.929,-17.929 0,-9.896 8.034,-17.929 17.929,-17.929 z M 35.131,41.113 c 9.895,0 17.929,8.034 17.929,17.929 0,9.895 -8.034,17.929 -17.929,17.929 -9.895,0 -17.929,-8.034 -17.929,-17.929 0,-9.895 8.034,-17.929 17.929,-17.929 z"
         style="fill:#005fff"
         id="path11" /></g></g></svg>
